<svg xmlns="http://www.w3.org/2000/svg" width="24" height="24" viewBox="0 0 24 24" fill="none">
  <path d="M7.62808 19.2281C7.41801 19.1225 7.1874 19.0862 6.95866 19.1403C6.18094 19.3233 4.92613 19.6361 4.01303 19.8657C3.49393 19.9964 3.02151 19.5343 3.14195 19.0133C3.36882 18.0293 3.68346 16.6606 3.83284 15.9762C3.87952 15.7634 3.85058 15.5439 3.75815 15.3469C3.21104 14.1752 2.87866 12.8784 2.87866 11.5162C2.87866 6.22715 7.69717 2.00897 13.1608 3.0341C16.5938 3.67831 19.3527 6.43815 19.9969 9.8702C21.022 15.3338 16.8038 20.1524 11.5148 20.1524C10.162 20.1524 8.81007 19.8256 7.62808 19.2281Z" stroke="#159E09" stroke-width="1.16667" stroke-linecap="round" stroke-linejoin="round"/>
  <path d="M8.25313 8.11848C6.9227 9.45544 7.93102 11.5794 9.70495 13.3533C11.4789 15.1273 13.5692 16.102 14.9062 14.7716L15.0295 14.6483C15.5654 14.1133 15.487 13.2236 14.8661 12.7904C14.6654 12.6513 14.4553 12.5038 14.2321 12.3479C13.7495 12.0089 13.0894 12.0612 12.672 12.4767L12.4461 12.7008C11.4742 12.1219 10.9812 11.5654 10.3249 10.5795L10.5489 10.3536C10.9635 9.93536 11.0158 9.27525 10.6778 8.79257C10.5209 8.56942 10.3744 8.35936 10.2344 8.15863C9.80206 7.53776 8.91228 7.46026 8.37637 7.99524L8.25313 8.11848Z" stroke="#159E09" stroke-width="1.16667" stroke-linecap="round" stroke-linejoin="round"/>
</svg>
